<svg width="149" height="45" viewBox="0 0 149 45" fill="none" xmlns="http://www.w3.org/2000/svg">
<g id="&#208;&#158;&#209;&#129;&#208;&#189;&#208;&#190;&#208;&#178;&#208;&#189;&#208;&#176;&#209;&#143;_&#209;&#134;&#208;&#178;&#208;&#181;&#209;&#130;&#208;&#189;&#208;&#176;&#209;&#143;" clip-path="url(#clip0_68_2201)">
<g id="&#208;&#161;&#208;&#187;&#208;&#190;&#208;&#185;_x0020_1">
<g id="_1997421071856">
<path id="Vector" d="M5.37371 40.8419H4.04965V43.5844H3.16081V37.3516H4.04965V40.0585H5.39181L7.38695 37.3516H8.35733L6.09014 40.3701L8.46621 43.5845H7.4324L5.37371 40.842V40.8419ZM17.4235 37.3515L14.6032 42.4891C14.3794 42.8988 14.1164 43.2045 13.8142 43.4062C13.5118 43.608 13.1823 43.7089 12.8256 43.7089C12.5475 43.7089 12.2634 43.6466 11.9731 43.522L12.209 42.8096C12.4327 42.8867 12.6322 42.9254 12.8076 42.9254C13.2066 42.9254 13.5361 42.7177 13.7961 42.3021L13.9412 42.0795L11.3838 37.3514H12.3542L14.4128 41.3048L16.5258 37.3514H17.4236L17.4235 37.3515ZM26.263 37.3515V43.5843H25.3743V38.1262H22.5629L22.4994 39.9515C22.4692 40.8122 22.3982 41.5098 22.2863 42.0439C22.1745 42.5781 21.9976 42.9803 21.7558 43.2503C21.5138 43.5204 21.1874 43.6554 20.7763 43.6554C20.5889 43.6554 20.3985 43.6317 20.205 43.5843L20.2684 42.7918C20.3652 42.8156 20.4619 42.8275 20.5586 42.8275C20.8186 42.8275 21.0272 42.7251 21.1844 42.5203C21.3416 42.3154 21.4594 42.0082 21.5381 41.5988C21.6167 41.1892 21.6681 40.649 21.6922 39.9782L21.792 37.3515H26.2629H26.263ZM33.8146 39.5241C34.5703 39.5241 35.1492 39.6902 35.5513 40.0227C35.9533 40.3552 36.1544 40.8448 36.1544 41.4919C36.1544 42.1745 35.9382 42.6939 35.506 43.0501C35.0736 43.4062 34.4556 43.5843 33.6514 43.5843H31.0305V37.3515H31.9283V39.5241H33.8147H33.8146ZM33.615 42.8808C34.1411 42.8808 34.5447 42.7635 34.8259 42.5291C35.107 42.2947 35.2476 41.9548 35.2476 41.5098C35.2476 40.655 34.7035 40.2276 33.6151 40.2276H31.9283V42.8808H33.6151H33.615ZM44.0325 38.1261H41.8559V43.5842H40.9672V38.1261H38.7997V37.3514H44.0325V38.1261ZM52.8538 37.3514L50.0335 42.489C49.8098 42.8987 49.5468 43.2044 49.2445 43.4061C48.9421 43.6079 48.6126 43.7088 48.2559 43.7088C47.9778 43.7088 47.6937 43.6466 47.4035 43.5219L47.6393 42.8095C47.863 42.8866 48.0625 42.9253 48.2379 42.9253C48.6369 42.9253 48.9665 42.7176 49.2264 42.302L49.3716 42.0794L46.8141 37.3514H47.7845L49.8431 41.3047L51.9561 37.3514H52.8539L52.8538 37.3514ZM59.0542 37.3514C59.8766 37.3514 60.5234 37.5445 60.995 37.9303C61.4665 38.3161 61.7024 38.8472 61.7024 39.524C61.7024 40.2007 61.4665 40.7319 60.995 41.1177C60.5234 41.5036 59.8765 41.6965 59.0542 41.6965H57.4853V43.5841H56.5783V37.3514H59.0542V37.3514ZM59.027 40.922C59.6013 40.922 60.0397 40.8017 60.342 40.5613C60.6443 40.3209 60.7954 39.9752 60.7954 39.5241C60.7954 39.073 60.6443 38.7272 60.342 38.4868C60.0397 38.2464 59.6014 38.1262 59.027 38.1262H57.4853V40.9221H59.027V40.922ZM71.2129 37.3514V43.5842H70.306V40.8062H66.6602V43.5842H65.7533V37.3514H66.6602V40.0315H70.306V37.3514H71.2129ZM78.7645 39.524C79.5202 39.524 80.0991 39.6901 80.5012 40.0226C80.9033 40.3551 81.1043 40.8447 81.1043 41.4918C81.1043 42.1744 80.8881 42.6938 80.4559 43.05C80.0236 43.4061 79.4055 43.5842 78.6014 43.5842H75.9804V37.3514H76.8783V39.524H78.7646H78.7645ZM78.565 42.8807C79.0911 42.8807 79.4946 42.7634 79.7758 42.529C80.0569 42.2946 80.1975 41.9547 80.1975 41.5097C80.1975 40.6549 79.6534 40.2275 78.5651 40.2275H76.8783V42.8807H78.5651H78.565ZM82.111 37.3514H83.0088V43.5841H82.111V37.3514ZM87.7762 37.3514H88.6741V42.1594L92.4286 37.3514H93.263V43.5841H92.3743V38.7849L88.6106 43.5841H87.7762V37.3514ZM90.506 36.9152C90.0102 36.9152 89.6278 36.8097 89.3588 36.5991C89.0898 36.3883 88.9522 36.087 88.9462 35.6953H89.59C89.5961 35.9268 89.6792 36.1063 89.8394 36.2338C89.9996 36.3615 90.2218 36.4253 90.5059 36.4253C90.7779 36.4253 90.9971 36.3615 91.1634 36.2338C91.3296 36.1063 91.4157 35.9267 91.4218 35.6953H92.0567C92.0506 36.0811 91.9131 36.3809 91.644 36.5946C91.375 36.8083 90.9956 36.9152 90.5059 36.9152H90.506ZM109.817 42.8095V44.9998H108.973V43.5842H103.505V37.3514H104.403V42.8095H107.94V37.3514H108.838V42.8095H109.817H109.817ZM118.42 42.8095V43.5842H113.813V37.3514H118.294V38.1261H114.72V40.0404H117.904V40.7973H114.72V42.8095H118.42H118.42ZM128.094 37.3514V43.5842H127.187V40.8062H123.542V43.5842H122.635V37.3514H123.542V40.0315H127.187V37.3514H128.094ZM137.224 38.1261H135.047V43.5842H134.158V38.1261H131.991V37.3514H137.224V38.1261ZM143.597 37.3514C144.419 37.3514 145.066 37.5445 145.537 37.9303C146.009 38.3161 146.245 38.8472 146.245 39.524C146.245 40.2007 146.009 40.7319 145.537 41.1177C145.066 41.5036 144.419 41.6965 143.597 41.6965H142.028V43.5841H141.121V37.3514H143.597V37.3514ZM143.569 40.922C144.144 40.922 144.582 40.8017 144.884 40.5613C145.187 40.3209 145.338 39.9752 145.338 39.5241C145.338 39.073 145.187 38.7272 144.884 38.4868C144.582 38.2464 144.144 38.1262 143.569 38.1262H142.028V40.9221H143.569V40.922Z" fill="black"/>
<path id="Vector_2" fill-rule="evenodd" clip-rule="evenodd" d="M38.0407 15.571H39.6259H54.6848V15.5712C58.6243 15.5712 61.8177 12.4358 61.8177 8.56792C61.8177 4.70024 58.6243 1.56485 54.6848 1.56485V1.56465H45.9664V0.00842285H54.6848V0.00852048C59.4998 0.00852048 63.403 3.84066 63.403 8.56792C63.403 13.2095 59.6401 16.9877 54.946 17.1233V17.1274H54.6849H54.6848V17.1273H39.6259V31.1341H38.0407V17.1273V15.571Z" fill="#0082FE"/>
<path id="Vector_3" d="M27.058 26.5685C24.1896 29.3838 20.2274 31.1253 15.851 31.1253C11.4739 31.1253 7.5112 29.3832 4.64263 26.567C1.77406 23.7507 -0.000137329 19.86 -0.000137329 15.5626C-0.000137329 11.2652 1.77406 7.37422 4.64263 4.55805C7.50335 1.74921 11.4529 0.00924986 15.8158 -0.00012207V1.56196C12.0335 1.57124 8.4425 3.03619 5.76763 5.66248C3.0842 8.29706 1.59091 11.836 1.59091 15.5625C1.59091 19.2886 3.0843 22.8278 5.76763 25.4622C8.45095 28.0968 12.0556 29.5629 15.8509 29.5629C19.6454 29.5629 23.2493 28.0975 25.9324 25.4642L27.0579 26.5684L27.058 26.5685ZM18.2265 0.00837124H19.8117V1.5647H18.2265V0.00837124Z" fill="#CC0EF1"/>
<path id="Vector_4" d="M61.8302 0.00830078C66.2073 0.00830078 70.1703 1.75031 73.0388 4.56657C75.9073 7.38293 77.6816 11.2737 77.6816 15.5712C77.6816 19.8686 75.9074 23.7594 73.0388 26.5758C70.1703 29.392 66.2074 31.134 61.8302 31.134C57.4531 31.134 53.4902 29.392 50.6216 26.5758C47.7532 23.7594 45.9789 19.8687 45.9789 15.5712C45.9789 11.2737 47.7532 7.38293 50.6216 4.56657C53.4902 1.75021 57.453 0.00830078 61.8302 0.00830078ZM61.8302 1.56463C58.0324 1.56463 54.4277 3.03075 51.7426 5.66699C49.0574 8.30334 47.5641 11.8422 47.5641 15.5711C47.5641 19.2999 49.0574 22.8389 51.7426 25.4751C54.4278 28.1115 58.0323 29.5776 61.8302 29.5776C65.6282 29.5776 69.2328 28.1113 71.9179 25.4751C74.6032 22.8388 76.0964 19.2999 76.0964 15.5711C76.0964 11.8423 74.603 8.30324 71.9179 5.66699C69.2328 3.03065 65.6282 1.56463 61.8302 1.56463Z" fill="#CC0EF1"/>
<path id="Vector_5" d="M71.3286 31.134V1.56466H71.3285V0.00823975H71.3286H72.9137H91.9354V1.56466H72.9137V31.134H71.3286Z" fill="#0082FE"/>
<path id="Vector_6" d="M123.638 17.1274H107.787V31.134H106.202V17.1274V15.5711V0.00842285H107.787V15.5711H123.638V0.00842285H125.223V15.5711V17.1274V31.134H123.638V17.1274Z" fill="#0082FE"/>
<path id="Vector_7" d="M99.8609 31.134V2.93746L84.0097 31.134H82.4246V4.67712H84.0097V27.9133L99.6972 0.00823975H101.446V0.00843499V0.117872V31.134H99.8609Z" fill="#CC0EF1"/>
<path id="Vector_8" fill-rule="evenodd" clip-rule="evenodd" d="M15.8452 6.22522C18.4741 6.22522 20.8538 7.27253 22.5753 8.96524L21.454 10.0654C20.0194 8.6546 18.0361 7.78164 15.8451 7.78164C11.4679 7.78164 7.91942 11.2656 7.91942 15.5631C7.91942 19.8606 11.4679 23.3444 15.8451 23.3444C18.0341 23.3444 20.0158 22.4732 21.4501 21.0647L22.5705 22.1656C20.8494 23.8555 18.4717 24.9008 15.8452 24.9008C10.5926 24.9008 6.33444 20.7202 6.33444 15.5632C6.33444 10.4061 10.5926 6.22542 15.8452 6.22542V6.22522Z" fill="#0082FE"/>
<path id="Vector_9" d="M133.149 31.134C128.772 31.134 124.809 29.392 121.94 26.5758C119.072 23.7595 117.297 19.8687 117.297 15.5712C117.297 11.2737 119.071 7.38293 121.94 4.56657C124.809 1.75031 128.771 0.00830078 133.149 0.00830078V1.56463C129.351 1.56463 125.746 3.03085 123.061 5.66699C120.376 8.30334 118.883 11.8422 118.883 15.5711C118.883 19.2998 120.376 22.839 123.061 25.4752C125.746 28.1115 129.351 29.5775 133.149 29.5775C136.947 29.5775 140.551 28.1114 143.236 25.4752C145.922 22.8389 147.415 19.2999 147.415 15.5711C147.415 11.8422 145.921 8.30324 143.236 5.66699C142.165 4.6149 140.947 3.74946 139.628 3.08893L140.348 1.70237C141.836 2.44832 143.187 3.41802 144.357 4.56647C147.226 7.38284 149 11.2736 149 15.5711C149 19.8685 147.226 23.7594 144.357 26.5757C141.489 29.392 137.526 31.1339 133.149 31.1339V31.134ZM135.908 0.227662L137.452 0.577841L137.096 2.09414L135.551 1.74406L135.908 0.227662Z" fill="#CC0EF1"/>
<path id="Vector_10" d="M42.7963 1.56465H33.2854V31.1341H31.7002V1.56465H22.1894V0.00842285H31.7002H33.2854H42.7963V1.56465Z" fill="#0082FE"/>
</g>
</g>
</g>
<defs>
<clipPath id="clip0_68_2201">
<rect width="149" height="45" fill="white"/>
</clipPath>
</defs>
</svg>
